# xmcd
#
# Track frame offsets:
#	150
#	9453
#	18981
#	27908
#	37885
#	50113
#	59941
#	72919
#	84996
#	96548
#	110500
#	123327
#	136605
#	145383
#
# Disc length: 2108 seconds
#
# Revision: 1
# Processed by: cddbd v1.5.2PL0 Copyright (c) Steve Scherf et al.
# Submitted via: audiograbber 1.83.01
#
DISCID=c3083a0e
DTITLE=Johnny Cash - Old Golden Throat
DYEAR=1968
DGENRE=Country
TTITLE0=I Got Stripes
TTITLE1=A Certain Kinda Hurtin'
TTITLE2=A Little at a Time
TTITLE3=All Over Again
TTITLE4=Still In Town
TTITLE5=Smiling Bill McCall
TTITLE6=The Wind Changes
TTITLE7=The Sons of Katie Elder
TTITLE8=Dark as a Dungeon
TTITLE9=Tennessee Flat-Top Box
TTITLE10=The Matador
TTITLE11=Send a Picture of Mother
TTITLE12=You Dreamer You
TTITLE13=Red Velvet
EXTD=
EXTT0=
EXTT1=
EXTT2=
EXTT3=
EXTT4=
EXTT5=
EXTT6=
EXTT7=
EXTT8=
EXTT9=
EXTT10=
EXTT11=
EXTT12=
EXTT13=
PLAYORDER=
